<svg xmlns="http://www.w3.org/2000/svg" width="258" height="258" viewBox="0 0 258 258"><defs><style>.cls-1{fill:#f7f7f7;}.cls-2{fill:#333;}</style></defs><title>safari-pinned-tab</title><g id="レイヤー_2" data-name="レイヤー 2"><g id="レイヤー_2-2" data-name="レイヤー 2"><rect class="cls-1" width="258" height="258"/><path class="cls-2" d="M129,48a80,80,0,1,0,80,80A80.089,80.089,0,0,0,129,48Zm0,6.521a73.592,73.592,0,0,1,71.634,57.171H57.368A73.59,73.59,0,0,1,129,54.522Zm0,146.958a73.365,73.365,0,0,1-72.806-83.265h3.882v11.528a3.261,3.261,0,1,0,6.521,0V118.215h9.891v18.922a3.262,3.262,0,0,0,6.523,0V118.215h9.9v11.528a3.26,3.26,0,1,0,6.52,0V118.215h9.9v11.528a3.26,3.26,0,1,0,6.52,0V118.215h9.9v11.528a3.261,3.261,0,1,0,6.522,0V118.215h9.9v11.528a3.261,3.261,0,1,0,6.522,0V118.215h9.894v26.317a3.262,3.262,0,0,0,6.524,0V118.215h9.894v11.528a3.261,3.261,0,1,0,6.521,0V118.215h9.9v11.528a3.261,3.261,0,1,0,6.521,0V118.215h3.88A73.372,73.372,0,0,1,129,201.48Z"/><path class="cls-2" d="M138.205,166.4a12.57,12.57,0,0,0,5.47-10.515,13.656,13.656,0,0,0-4.142-10.194,14.169,14.169,0,0,0-10.356-4.077,14.424,14.424,0,0,0-10.449,4.077,13.626,13.626,0,0,0-4.172,10.16,12.281,12.281,0,0,0,5.5,10.581q-6.762,3.363-6.761,11.777a14.141,14.141,0,0,0,4.531,10.741,15.953,15.953,0,0,0,11.435,4.271,15.226,15.226,0,0,0,11.111-4.241,14.539,14.539,0,0,0,4.338-10.87,13.814,13.814,0,0,0-1.779-6.987A11.569,11.569,0,0,0,138.205,166.4Zm-14.364-15.759a7.458,7.458,0,1,1-.033,10.547,7.292,7.292,0,0,1-2.168-5.369A7.082,7.082,0,0,1,123.841,150.638Zm11,33.293a8.252,8.252,0,0,1-11.723-.033,8.3,8.3,0,0,1-2.386-5.95,7.921,7.921,0,0,1,2.419-5.794,8.3,8.3,0,0,1,11.69,11.777Z"/></g></g></svg>