<svg xmlns="http://www.w3.org/2000/svg" viewBox="0 0 480 480" class="logo"><title>takana8</title><path d="M240.391,90.326c-82.707,0-150,67.287-150,150s67.291,150,150,150,150-67.291,150-150S323.1,90.326,240.391,90.326Zm0,12.228c65.461,0,120.363,45.9,134.314,107.194H106.083C120.031,148.456,174.933,102.555,240.391,102.555Zm0,275.545c-75.967,0-137.77-61.807-137.77-137.778a138.08,138.08,0,0,1,1.259-18.344h7.278v21.616a6.114,6.114,0,0,0,12.228,0V221.978h18.545v35.481a6.116,6.116,0,0,0,12.231,0V221.978h18.554v21.616a6.113,6.113,0,1,0,12.225,0V221.978H203.5v21.616a6.113,6.113,0,1,0,12.225,0V221.978h18.554v21.616a6.114,6.114,0,0,0,12.228,0V221.978h18.555v21.616a6.114,6.114,0,0,0,12.229,0V221.978H295.84v49.345a6.116,6.116,0,0,0,12.231,0V221.978h18.551v21.616a6.114,6.114,0,0,0,12.229,0V221.978h18.555v21.616a6.113,6.113,0,0,0,12.226,0V221.978h7.275a138,138,0,0,1,1.256,18.344C378.164,316.293,316.361,378.1,240.391,378.1Z"/><path d="M257.653,312.32q10.249-7.652,10.256-19.717a25.608,25.608,0,0,0-7.767-19.114q-7.768-7.642-19.417-7.643a27.052,27.052,0,0,0-19.593,7.643,25.553,25.553,0,0,0-7.822,19.052,23.027,23.027,0,0,0,10.311,19.838q-12.68,6.308-12.676,22.082a26.511,26.511,0,0,0,8.5,20.141q8.441,8,21.439,8.008,12.694,0,20.833-7.952t8.135-20.382a25.9,25.9,0,0,0-3.336-13.1A21.683,21.683,0,0,0,257.653,312.32ZM230.72,282.772a13.985,13.985,0,1,1-.062,19.775,13.669,13.669,0,0,1-4.065-10.067A13.281,13.281,0,0,1,230.72,282.772ZM251.352,345.2a15.47,15.47,0,0,1-21.98-.061,15.552,15.552,0,0,1-4.474-11.155,14.858,14.858,0,0,1,4.536-10.865A15.557,15.557,0,0,1,251.352,345.2Z"/></svg>
